<svg id="mo" xmlns="http://www.w3.org/2000/svg" width="18" height="18" viewBox="0 0 18 18">
  <path id="Path_334" data-name="Path 334" d="M17.64,18c-2.49,0-4.44-3.953-4.44-9s1.95-9,4.44-9,4.44,3.953,4.44,9-1.95,9-4.44,9m0-17.28C15.6.72,13.883,4.512,13.883,9s1.721,8.28,3.757,8.28S21.4,13.488,21.4,9,19.676.72,17.64.72" transform="translate(-8.64 0)" fill="#9098aa"/>
  <path id="Path_335" data-name="Path 335" d="M9,18a9,9,0,1,1,9-9,9.01,9.01,0,0,1-9,9M9,.72A8.28,8.28,0,1,0,17.28,9,8.29,8.29,0,0,0,9,.72" fill="#9098aa"/>
  <path id="Path_336" data-name="Path 336" d="M20.415,42.64a.334.334,0,0,1-.232-.095,7.586,7.586,0,0,0-10.654,0,.331.331,0,0,1-.494-.034.4.4,0,0,1,.031-.536,8.246,8.246,0,0,1,11.581,0,.4.4,0,0,1,.031.536.339.339,0,0,1-.263.129" transform="translate(-5.857 -26.92)" fill="#9098aa"/>
  <path id="Path_337" data-name="Path 337" d="M14.857,9.64a8.365,8.365,0,0,1-5.79-2.375.4.4,0,0,1-.031-.536A.331.331,0,0,1,9.53,6.7a7.587,7.587,0,0,0,10.654,0,.331.331,0,0,1,.494.034.4.4,0,0,1-.031.536,8.365,8.365,0,0,1-5.79,2.375" transform="translate(-5.857 -4.32)" fill="#9098aa"/>
  <path id="Path_338" data-name="Path 338" d="M17.64,27.16H.36a.381.381,0,0,1,0-.76H17.64a.381.381,0,0,1,0,.76" transform="translate(0 -17.78)" fill="#9098aa"/>
  <path id="Path_339" data-name="Path 339" d="M26.78,18a.371.371,0,0,1-.38-.36V.36a.381.381,0,0,1,.76,0V17.64a.371.371,0,0,1-.38.36" transform="translate(-17.78)" fill="#9098aa"/>
</svg>
