<svg xmlns="http://www.w3.org/2000/svg" width="24" height="24" viewBox="0 0 24 24"><g transform="translate(-1680.733 -185.095)"><path d="M10.422,2A8.307,8.307,0,0,0,2,10.166a8.307,8.307,0,0,0,8.422,8.166,8.307,8.307,0,0,0,8.422-8.166A8.307,8.307,0,0,0,10.422,2m0-2A10.3,10.3,0,0,1,20.845,10.166,10.3,10.3,0,0,1,10.422,20.332,10.3,10.3,0,0,1,0,10.166,10.3,10.3,0,0,1,10.422,0Z" transform="translate(1680.733 185.095)" fill="#fff"/><rect width="2" height="9.892" transform="translate(1696.325 202.1) rotate(-45)"/><path d="M1,1V1M0,0H2V9.892H0Z" transform="translate(1696.325 202.1) rotate(-45)" fill="#fff"/></g></svg>